<svg width="25" height="25" viewBox="0 0 25 25" fill="none" xmlns="http://www.w3.org/2000/svg">
<g clip-path="url(#clip0_814_230)">
<path fill-rule="evenodd" clip-rule="evenodd" d="M5.76089 13.8841C5.6661 13.791 5.57061 13.698 5.47443 13.6056C4.49388 12.6657 3.52096 11.7247 2.60811 10.7167C2.38693 10.4726 1.97165 9.99901 1.55464 9.75526C1.25638 9.58095 0.947683 9.50805 0.665391 9.54416C0.48553 9.56707 0.222694 9.6577 0.0907497 10.0025C0.0685275 10.0605 0.0421445 10.1601 0.0317279 10.2872C0.0150612 10.4928 0.0313727 10.8615 0.036581 10.9126C0.109498 11.6563 0.182412 12.3674 0.316092 13.1032C0.439009 13.7803 0.523033 14.4626 0.655325 15.1386C0.853242 16.1501 1.10811 17.1237 1.47964 18.0869C1.61749 18.4445 2.01992 18.6226 2.37755 18.4848C2.73485 18.3469 2.91332 17.9449 2.77547 17.5872C2.43346 16.7001 2.20047 15.8035 2.01853 14.8719C1.88728 14.2021 1.80429 13.5257 1.68241 12.8549C1.60324 12.4185 1.54699 11.991 1.49907 11.5598L1.57859 11.649C2.51366 12.6813 3.50915 13.6455 4.51332 14.608C4.88901 14.9685 5.25187 15.3393 5.63346 15.6938C5.66437 15.7389 5.80706 15.9459 5.8772 16.0167C5.99387 16.1348 6.11991 16.2007 6.22964 16.2334C6.50846 16.3167 6.79145 16.2858 7.03867 15.9733C7.22374 15.7393 7.33032 15.3764 7.32233 14.9431C7.31157 14.3476 7.08555 13.5626 7.03763 13.2008C6.73416 10.9115 6.24319 8.63131 6.11263 6.32228C6.0911 5.93965 5.76298 5.64658 5.38034 5.66811C4.9977 5.68998 4.70428 6.0181 4.72616 6.40074C4.85845 8.74449 5.35256 11.0594 5.66055 13.3834C5.67721 13.507 5.7168 13.683 5.76089 13.8841Z" fill="#FBFBFB"/>
<path fill-rule="evenodd" clip-rule="evenodd" d="M11.8287 4.39477C11.0412 4.60345 10.2523 4.78539 9.61965 5.32636C8.95784 5.89268 8.62139 6.71526 8.5016 7.63192C8.34882 8.80137 8.55368 10.1281 8.68076 11.0736C8.74674 11.5632 8.77486 12.2455 8.91757 12.85C9.04049 13.3698 9.24985 13.8354 9.56895 14.1614C10.0703 14.6736 10.8398 14.7253 11.629 14.4059C12.5408 14.0368 13.4488 13.185 13.6957 12.6885C13.8665 12.3455 13.7266 11.9281 13.3832 11.7576C13.0401 11.5868 12.6231 11.7267 12.4523 12.0698C12.2957 12.3847 11.6863 12.8844 11.1078 13.1187C10.9787 13.1708 10.8509 13.2097 10.7301 13.2194C10.6672 13.2246 10.6044 13.2337 10.5617 13.1903C10.3523 12.976 10.2787 12.6278 10.2179 12.276C10.1328 11.7857 10.1092 11.2736 10.0575 10.8882C9.9436 10.0427 9.74223 8.85762 9.87868 7.81179C9.95195 7.25102 10.1176 6.72846 10.5228 6.38193C10.9929 5.97985 11.5985 5.89269 12.1842 5.73748C12.5547 5.63956 12.7759 5.25901 12.6776 4.88852C12.5797 4.51803 12.1992 4.29685 11.8287 4.39477Z" fill="#FBFBFB"/>
<path fill-rule="evenodd" clip-rule="evenodd" d="M11.7756 8.05415C11.1655 8.38644 10.5135 8.72808 9.85964 8.96281C9.49888 9.09232 9.31103 9.49025 9.4402 9.85102C9.56971 10.2118 9.96762 10.3996 10.3284 10.2701C11.0485 10.0118 11.7683 9.6399 12.4398 9.27428C12.7763 9.09094 12.9009 8.66872 12.7176 8.33226C12.5343 7.99545 12.1124 7.87116 11.7756 8.05415Z" fill="#FBFBFB"/>
<path fill-rule="evenodd" clip-rule="evenodd" d="M20.1624 8.42237C19.6554 7.80917 19.1197 7.20571 18.5537 6.65432C18.5075 6.60953 17.9367 6.13938 17.5975 5.96369C17.3686 5.84529 17.1659 5.82376 17.0471 5.83522C16.7016 5.86855 16.4909 6.05571 16.4044 6.37585C16.3218 6.68279 16.2919 7.00258 16.2919 7.32897C15.7784 6.36612 15.3086 5.37585 15.0232 4.33314C14.9995 4.24703 14.9804 4.20675 14.9773 4.19946C14.8811 3.98696 14.7447 3.91472 14.6961 3.88625C14.4572 3.74597 14.2419 3.7696 14.0603 3.85119C14.0381 3.86092 13.5485 4.07827 13.6655 4.63348C13.6749 4.67827 13.7548 4.99737 13.778 5.12202C13.7985 5.23035 13.8429 5.32792 13.9051 5.41056C14.3836 6.78486 15.1155 8.08314 15.8179 9.35084C15.9697 9.6248 16.0881 9.90708 16.1662 10.2102C16.1891 10.2988 16.1985 10.4991 16.2186 10.5974C16.253 10.7637 16.3211 10.8751 16.3645 10.9321C16.5902 11.2286 16.8683 11.2588 17.1249 11.1828C17.2346 11.1505 17.4544 11.0765 17.5881 10.7581C17.8888 10.0428 17.8547 9.25291 17.7676 8.45708C17.7419 8.22166 17.71 7.98625 17.6905 7.75361C18.3082 8.3675 18.8863 9.04458 19.4297 9.72131C19.4895 9.79562 20.0943 10.472 20.2551 10.5727C20.6572 10.8255 20.9693 10.6356 21.103 10.5224C21.3068 10.3494 21.4673 10.0526 21.5325 9.67446C21.6166 9.18522 21.5502 8.51194 21.5436 8.24111C21.4995 6.41819 21.4336 4.51265 21.0242 2.73279C20.9384 2.35918 20.5655 2.12583 20.1919 2.2116C19.8183 2.29736 19.585 2.67064 19.6707 3.0439C20.0593 4.73418 20.1131 6.54425 20.1551 8.2748C20.1561 8.31473 20.1589 8.36473 20.1624 8.42237Z" fill="#FBFBFB"/>
<path fill-rule="evenodd" clip-rule="evenodd" d="M22.9374 2.27124C23.1892 3.48826 23.4412 4.69415 23.6058 5.94554C23.6558 6.32575 24.0048 6.59381 24.385 6.54381C24.7648 6.49381 25.0329 6.14485 24.9829 5.76464C24.751 3.99971 24.3496 2.32402 24.0135 0.58305C23.884 -0.089867 23.2444 0.00423974 23.2051 0.0111842C23.1187 0.026462 22.6475 0.126808 22.6319 0.678544C22.6308 0.712225 22.6534 0.950402 22.6572 1.04276C22.6656 1.25422 22.6614 1.46083 22.6506 1.67263C22.6381 1.91673 22.7531 2.13791 22.9374 2.27124Z" fill="#FBFBFB"/>
<path fill-rule="evenodd" clip-rule="evenodd" d="M24.7345 9.44787C24.805 9.23329 24.7692 8.98816 24.6178 8.79823C24.3786 8.49857 23.9414 8.44962 23.6418 8.68885C23.3651 8.90968 23.3133 9.17879 23.3505 9.50795C23.3935 9.88886 23.738 10.1631 24.1189 10.1197C24.4671 10.0805 24.7262 9.78884 24.7345 9.44787Z" fill="#FBFBFB"/>
<path fill-rule="evenodd" clip-rule="evenodd" d="M11.6252 22.8437C11.5544 22.6937 11.4975 22.5753 11.4839 22.55C10.8388 21.3434 10.1388 20.1527 9.37663 19.0163C9.16309 18.6979 8.73151 18.6128 8.4131 18.8264C8.0947 19.0399 8.00963 19.4715 8.22317 19.7899C8.95963 20.8878 9.63566 22.0389 10.2593 23.2048C10.3068 23.2937 10.6239 24.0837 10.8503 24.4132C11.0555 24.7114 11.3131 24.818 11.4607 24.8399C11.695 24.8746 12.0617 24.7906 12.3593 24.3934C12.7478 23.875 13.2516 22.4899 13.3346 22.26C13.4867 21.8371 13.6155 21.3934 13.735 20.9618C13.9614 20.143 14.0916 19.3097 14.2079 18.4701C14.2607 18.0902 13.995 17.7396 13.6152 17.6868C13.2357 17.6343 12.8846 17.9 12.8322 18.2795C12.7242 19.0583 12.6065 19.8319 12.3964 20.5913C12.286 20.9896 12.168 21.3996 12.0277 21.7899C11.9853 21.9069 11.8207 22.3902 11.6252 22.8437Z" fill="#FBFBFB"/>
</g>
<defs>
<clipPath id="clip0_814_230">
<rect width="25" height="25" fill="white"/>
</clipPath>
</defs>
</svg>
